<svg id="visual" viewBox="0 0 2400 1080" width="2400" height="1080" xmlns="http://www.w3.org/2000/svg" xmlns:xlink="http://www.w3.org/1999/xlink" version="1.1"><rect x="0" y="0" width="2400" height="1080" fill="#EEEEEE"></rect><g fill="#00ADB5"><path d="M69.9 40.4L69.9 180.1L-69.9 180.1L-69.9 40.4L-191 -29.5L-121.1 -150.6L0 -80.7L121.1 -150.6L191 -29.5Z" transform="translate(1521 689)"></path><path d="M30.5 17.6L30.5 78.6L-30.5 78.6L-30.5 17.6L-83.3 -12.9L-52.8 -65.7L0 -35.2L52.8 -65.7L83.3 -12.9Z" transform="translate(276 214)"></path><path d="M54.8 31.6L54.8 141.2L-54.8 141.2L-54.8 31.6L-149.7 -23.2L-94.9 -118L0 -63.3L94.9 -118L149.7 -23.2Z" transform="translate(945 394)"></path><path d="M37.2 21.5L37.2 96L-37.2 96L-37.2 21.5L-101.7 -15.7L-64.5 -80.2L0 -43L64.5 -80.2L101.7 -15.7Z" transform="translate(2268 170)"></path><path d="M62.6 36.1L62.6 161.4L-62.6 161.4L-62.6 36.1L-171 -26.5L-108.4 -134.9L0 -72.3L108.4 -134.9L171 -26.5Z" transform="translate(1038 1051)"></path><path d="M41 23.7L41 105.7L-41 105.7L-41 23.7L-112.1 -17.3L-71 -88.4L0 -47.4L71 -88.4L112.1 -17.3Z" transform="translate(2344 801)"></path><path d="M67.2 38.8L67.2 173.2L-67.2 173.2L-67.2 38.8L-183.6 -28.4L-116.4 -144.8L0 -77.6L116.4 -144.8L183.6 -28.4Z" transform="translate(149 979)"></path><path d="M45.9 26.5L45.9 118.2L-45.9 118.2L-45.9 26.5L-125.3 -19.4L-79.5 -98.8L0 -53L79.5 -98.8L125.3 -19.4Z" transform="translate(1658 15)"></path></g></svg>