<svg id="visual" viewBox="0 0 2400 1200" width="2400" height="1200" xmlns="http://www.w3.org/2000/svg" xmlns:xlink="http://www.w3.org/1999/xlink" version="1.1"><rect x="0" y="0" width="2400" height="1200" fill="#EEEEEE"></rect><g fill="#00ADB5"><path d="M53.7 31L53.7 138.4L-53.7 138.4L-53.7 31L-146.7 -22.7L-93 -115.7L0 -62L93 -115.7L146.7 -22.7Z" transform="translate(923 1049)"></path><path d="M30.2 17.4L30.2 77.9L-30.2 77.9L-30.2 17.4L-82.6 -12.8L-52.3 -65.1L0 -34.9L52.3 -65.1L82.6 -12.8Z" transform="translate(1684 731)"></path><path d="M51.3 29.6L51.3 132.1L-51.3 132.1L-51.3 29.6L-140.1 -21.7L-88.8 -110.5L0 -59.2L88.8 -110.5L140.1 -21.7Z" transform="translate(2109 1169)"></path><path d="M48.3 27.9L48.3 124.5L-48.3 124.5L-48.3 27.9L-132 -20.4L-83.7 -104.1L0 -55.8L83.7 -104.1L132 -20.4Z" transform="translate(782 75)"></path><path d="M44.5 25.7L44.5 114.8L-44.5 114.8L-44.5 25.7L-121.6 -18.8L-77.1 -95.9L0 -51.4L77.1 -95.9L121.6 -18.8Z" transform="translate(2087 593)"></path><path d="M45.6 26.3L45.6 117.5L-45.6 117.5L-45.6 26.3L-124.6 -19.3L-79 -98.3L0 -52.7L79 -98.3L124.6 -19.3Z" transform="translate(29 1067)"></path></g></svg>