<svg id="visual" viewBox="0 0 2400 1200" width="2400" height="1200" xmlns="http://www.w3.org/2000/svg" xmlns:xlink="http://www.w3.org/1999/xlink" version="1.1"><rect x="0" y="0" width="2400" height="1200" fill="#EEEEEE"></rect><g fill="#00ADB5"><path d="M53.7 31L53.7 138.4L-53.7 138.4L-53.7 31L-146.7 -22.7L-93 -115.7L0 -62L93 -115.7L146.7 -22.7Z" transform="translate(511 74)"></path><path d="M27 15.6L27 69.6L-27 69.6L-27 15.6L-73.7 -11.4L-46.7 -58.1L0 -31.2L46.7 -58.1L73.7 -11.4Z" transform="translate(168 788)"></path><path d="M30.2 17.4L30.2 77.9L-30.2 77.9L-30.2 17.4L-82.6 -12.8L-52.3 -65.1L0 -34.9L52.3 -65.1L82.6 -12.8Z" transform="translate(2316 791)"></path><path d="M30.2 17.4L30.2 77.9L-30.2 77.9L-30.2 17.4L-82.6 -12.8L-52.3 -65.1L0 -34.9L52.3 -65.1L82.6 -12.8Z" transform="translate(1064 103)"></path><path d="M46.4 26.8L46.4 119.6L-46.4 119.6L-46.4 26.8L-126.8 -19.6L-80.4 -100L0 -53.6L80.4 -100L126.8 -19.6Z" transform="translate(1614 783)"></path><path d="M41 23.7L41 105.7L-41 105.7L-41 23.7L-112.1 -17.3L-71 -88.4L0 -47.4L71 -88.4L112.1 -17.3Z" transform="translate(1853 454)"></path></g></svg>