<svg id="visual" viewBox="0 0 2400 1200" width="2400" height="1200" xmlns="http://www.w3.org/2000/svg" xmlns:xlink="http://www.w3.org/1999/xlink" version="1.1"><rect x="0" y="0" width="2400" height="1200" fill="#EEEEEE"></rect><g fill="#00ADB5"><path d="M53.7 31L53.7 138.4L-53.7 138.4L-53.7 31L-146.7 -22.7L-93 -115.7L0 -62L93 -115.7L146.7 -22.7Z" transform="translate(1603 1031)"></path><path d="M27 15.6L27 69.6L-27 69.6L-27 15.6L-73.7 -11.4L-46.7 -58.1L0 -31.2L46.7 -58.1L73.7 -11.4Z" transform="translate(828 842)"></path><path d="M36.7 21.2L36.7 94.6L-36.7 94.6L-36.7 21.2L-100.3 -15.5L-63.6 -79.1L0 -42.4L63.6 -79.1L100.3 -15.5Z" transform="translate(1948 666)"></path><path d="M48.6 28L48.6 125.2L-48.6 125.2L-48.6 28L-132.7 -20.5L-84.1 -104.7L0 -56.1L84.1 -104.7L132.7 -20.5Z" transform="translate(12 527)"></path><path d="M27.5 15.9L27.5 70.9L-27.5 70.9L-27.5 15.9L-75.2 -11.6L-47.7 -59.3L0 -31.8L47.7 -59.3L75.2 -11.6Z" transform="translate(1513 563)"></path><path d="M45.9 26.5L45.9 118.2L-45.9 118.2L-45.9 26.5L-125.3 -19.4L-79.5 -98.8L0 -53L79.5 -98.8L125.3 -19.4Z" transform="translate(1399 70)"></path><path d="M35.4 20.4L35.4 91.1L-35.4 91.1L-35.4 20.4L-96.6 -14.9L-61.2 -76.2L0 -40.8L61.2 -76.2L96.6 -14.9Z" transform="translate(998 257)"></path><path d="M37.8 21.8L37.8 97.4L-37.8 97.4L-37.8 21.8L-103.2 -16L-65.4 -81.4L0 -43.6L65.4 -81.4L103.2 -16Z" transform="translate(2334 30)"></path><path d="M50.5 29.1L50.5 130.1L-50.5 130.1L-50.5 29.1L-137.9 -21.3L-87.4 -108.7L0 -58.3L87.4 -108.7L137.9 -21.3Z" transform="translate(209 41)"></path></g></svg>