<svg id="visual" viewBox="0 0 2400 1200" width="2400" height="1200" xmlns="http://www.w3.org/2000/svg" xmlns:xlink="http://www.w3.org/1999/xlink" version="1.1"><rect x="0" y="0" width="2400" height="1200" fill="#EEEEEE"></rect><g fill="#00ADB5"><path d="M53.7 31L53.7 138.4L-53.7 138.4L-53.7 31L-146.7 -22.7L-93 -115.7L0 -62L93 -115.7L146.7 -22.7Z" transform="translate(140 763)"></path><path d="M27 15.6L27 69.6L-27 69.6L-27 15.6L-73.7 -11.4L-46.7 -58.1L0 -31.2L46.7 -58.1L73.7 -11.4Z" transform="translate(1115 860)"></path><path d="M52.4 30.2L52.4 134.9L-52.4 134.9L-52.4 30.2L-143 -22.1L-90.7 -112.8L0 -60.5L90.7 -112.8L143 -22.1Z" transform="translate(69 194)"></path><path d="M43.2 24.9L43.2 111.3L-43.2 111.3L-43.2 24.9L-118 -18.2L-74.8 -93L0 -49.9L74.8 -93L118 -18.2Z" transform="translate(2018 939)"></path><path d="M30.2 17.4L30.2 77.9L-30.2 77.9L-30.2 17.4L-82.6 -12.8L-52.3 -65.1L0 -34.9L52.3 -65.1L82.6 -12.8Z" transform="translate(1549 70)"></path><path d="M31 17.9L31 80L-31 80L-31 17.9L-84.8 -13.1L-53.8 -66.9L0 -35.8L53.8 -66.9L84.8 -13.1Z" transform="translate(2135 25)"></path><path d="M37 21.3L37 95.3L-37 95.3L-37 21.3L-101 -15.6L-64 -79.7L0 -42.7L64 -79.7L101 -15.6Z" transform="translate(672 440)"></path><path d="M44.3 25.6L44.3 114.1L-44.3 114.1L-44.3 25.6L-120.9 -18.7L-76.7 -95.4L0 -51.1L76.7 -95.4L120.9 -18.7Z" transform="translate(2374 680)"></path><path d="M39.1 22.6L39.1 100.8L-39.1 100.8L-39.1 22.6L-106.9 -16.5L-67.8 -84.3L0 -45.2L67.8 -84.3L106.9 -16.5Z" transform="translate(668 982)"></path><path d="M49.7 28.7L49.7 128L-49.7 128L-49.7 28.7L-135.7 -21L-86 -107L0 -57.3L86 -107L135.7 -21Z" transform="translate(1488 587)"></path></g></svg>