<svg id="visual" viewBox="0 0 2400 1200" width="2400" height="1200" xmlns="http://www.w3.org/2000/svg" xmlns:xlink="http://www.w3.org/1999/xlink" version="1.1"><rect x="0" y="0" width="2400" height="1200" fill="#EEEEEE"></rect><g fill="#00ADB5"><path d="M53.7 31L53.7 138.4L-53.7 138.4L-53.7 31L-146.7 -22.7L-93 -115.7L0 -62L93 -115.7L146.7 -22.7Z" transform="translate(1983 338)"></path><path d="M27 15.6L27 69.6L-27 69.6L-27 15.6L-73.7 -11.4L-46.7 -58.1L0 -31.2L46.7 -58.1L73.7 -11.4Z" transform="translate(284 123)"></path><path d="M37.2 21.5L37.2 96L-37.2 96L-37.2 21.5L-101.7 -15.7L-64.5 -80.2L0 -43L64.5 -80.2L101.7 -15.7Z" transform="translate(2272 656)"></path><path d="M43.2 24.9L43.2 111.3L-43.2 111.3L-43.2 24.9L-118 -18.2L-74.8 -93L0 -49.9L74.8 -93L118 -18.2Z" transform="translate(668 413)"></path><path d="M39.1 22.6L39.1 100.8L-39.1 100.8L-39.1 22.6L-106.9 -16.5L-67.8 -84.3L0 -45.2L67.8 -84.3L106.9 -16.5Z" transform="translate(820 1000)"></path><path d="M32.7 18.9L32.7 84.2L-32.7 84.2L-32.7 18.9L-89.2 -13.8L-56.6 -70.4L0 -37.7L56.6 -70.4L89.2 -13.8Z" transform="translate(1385 753)"></path><path d="M33.2 19.2L33.2 85.5L-33.2 85.5L-33.2 19.2L-90.7 -14L-57.5 -71.5L0 -38.3L57.5 -71.5L90.7 -14Z" transform="translate(1860 719)"></path><path d="M46.7 27L46.7 120.3L-46.7 120.3L-46.7 27L-127.5 -19.7L-80.9 -100.6L0 -53.9L80.9 -100.6L127.5 -19.7Z" transform="translate(1304 66)"></path><path d="M46.4 26.8L46.4 119.6L-46.4 119.6L-46.4 26.8L-126.8 -19.6L-80.4 -100L0 -53.6L80.4 -100L126.8 -19.6Z" transform="translate(254 579)"></path></g></svg>